<mxfile host="app.diagrams.net" modified="2024-03-12T13:04:00.574Z" agent="Mozilla/5.0 (Windows NT 10.0; Win64; x64; rv:123.0) Gecko/20100101 Firefox/123.0" etag="apH_oHJwnwlkWsFsFXQQ" version="24.0.4" type="github">
  <diagram name="Page-1" id="Z_6jJXreDWMoBdkQwuBQ">
    <mxGraphModel dx="1500" dy="934" grid="1" gridSize="10" guides="1" tooltips="1" connect="1" arrows="1" fold="1" page="1" pageScale="1" pageWidth="1700" pageHeight="1100" math="1" shadow="0">
      <root>
        <mxCell id="0" />
        <mxCell id="1" parent="0" />
        <mxCell id="lzTJ7oMeltYPbNWA7_HH-1" value="" style="endArrow=none;html=1;rounded=0;" parent="1" edge="1">
          <mxGeometry width="50" height="50" relative="1" as="geometry">
            <mxPoint x="160" y="760" as="sourcePoint" />
            <mxPoint x="160" y="240" as="targetPoint" />
          </mxGeometry>
        </mxCell>
        <mxCell id="lzTJ7oMeltYPbNWA7_HH-2" value="" style="endArrow=none;html=1;rounded=0;" parent="1" edge="1">
          <mxGeometry width="50" height="50" relative="1" as="geometry">
            <mxPoint x="1470" y="760" as="sourcePoint" />
            <mxPoint x="1470" y="240" as="targetPoint" />
          </mxGeometry>
        </mxCell>
        <mxCell id="lzTJ7oMeltYPbNWA7_HH-3" value="" style="endArrow=none;html=1;rounded=0;" parent="1" edge="1">
          <mxGeometry width="50" height="50" relative="1" as="geometry">
            <mxPoint x="160" y="240" as="sourcePoint" />
            <mxPoint x="330" y="240" as="targetPoint" />
          </mxGeometry>
        </mxCell>
        <mxCell id="lzTJ7oMeltYPbNWA7_HH-4" value="" style="endArrow=none;html=1;rounded=0;" parent="1" edge="1">
          <mxGeometry width="50" height="50" relative="1" as="geometry">
            <mxPoint x="1300" y="240" as="sourcePoint" />
            <mxPoint x="1470" y="240" as="targetPoint" />
          </mxGeometry>
        </mxCell>
        <mxCell id="lzTJ7oMeltYPbNWA7_HH-5" value="" style="endArrow=none;html=1;rounded=0;" parent="1" edge="1">
          <mxGeometry width="50" height="50" relative="1" as="geometry">
            <mxPoint x="160" y="760" as="sourcePoint" />
            <mxPoint x="330" y="760" as="targetPoint" />
          </mxGeometry>
        </mxCell>
        <mxCell id="lzTJ7oMeltYPbNWA7_HH-6" value="" style="endArrow=none;html=1;rounded=0;" parent="1" edge="1">
          <mxGeometry width="50" height="50" relative="1" as="geometry">
            <mxPoint x="1300" y="760" as="sourcePoint" />
            <mxPoint x="1470" y="760" as="targetPoint" />
          </mxGeometry>
        </mxCell>
        <mxCell id="lzTJ7oMeltYPbNWA7_HH-7" value="" style="curved=1;endArrow=none;html=1;rounded=0;endFill=0;" parent="1" edge="1">
          <mxGeometry width="50" height="50" relative="1" as="geometry">
            <mxPoint x="330" y="240" as="sourcePoint" />
            <mxPoint x="730" y="240" as="targetPoint" />
            <Array as="points">
              <mxPoint x="330" y="100" />
              <mxPoint x="530" y="10" />
              <mxPoint x="720" y="90" />
            </Array>
          </mxGeometry>
        </mxCell>
        <mxCell id="lzTJ7oMeltYPbNWA7_HH-8" value="" style="endArrow=none;html=1;rounded=0;" parent="1" edge="1">
          <mxGeometry width="50" height="50" relative="1" as="geometry">
            <mxPoint x="730" y="240" as="sourcePoint" />
            <mxPoint x="900" y="240" as="targetPoint" />
          </mxGeometry>
        </mxCell>
        <mxCell id="lzTJ7oMeltYPbNWA7_HH-9" value="" style="curved=1;endArrow=none;html=1;rounded=0;endFill=0;" parent="1" edge="1">
          <mxGeometry width="50" height="50" relative="1" as="geometry">
            <mxPoint x="900" y="240" as="sourcePoint" />
            <mxPoint x="1300" y="240" as="targetPoint" />
            <Array as="points">
              <mxPoint x="900" y="100" />
              <mxPoint x="1100" y="10" />
              <mxPoint x="1290" y="90" />
            </Array>
          </mxGeometry>
        </mxCell>
        <mxCell id="lzTJ7oMeltYPbNWA7_HH-10" value="" style="curved=1;endArrow=none;html=1;rounded=0;endFill=0;" parent="1" edge="1">
          <mxGeometry width="50" height="50" relative="1" as="geometry">
            <mxPoint x="330" y="760" as="sourcePoint" />
            <mxPoint x="730" y="760" as="targetPoint" />
            <Array as="points">
              <mxPoint x="330" y="900" />
              <mxPoint x="530" y="990" />
              <mxPoint x="720" y="910" />
            </Array>
          </mxGeometry>
        </mxCell>
        <mxCell id="lzTJ7oMeltYPbNWA7_HH-11" value="" style="endArrow=none;html=1;rounded=0;" parent="1" edge="1">
          <mxGeometry width="50" height="50" relative="1" as="geometry">
            <mxPoint x="730" y="760" as="sourcePoint" />
            <mxPoint x="900" y="760" as="targetPoint" />
          </mxGeometry>
        </mxCell>
        <mxCell id="lzTJ7oMeltYPbNWA7_HH-12" value="" style="curved=1;endArrow=none;html=1;rounded=0;endFill=0;" parent="1" edge="1">
          <mxGeometry width="50" height="50" relative="1" as="geometry">
            <mxPoint x="900" y="760" as="sourcePoint" />
            <mxPoint x="1300" y="760" as="targetPoint" />
            <Array as="points">
              <mxPoint x="900" y="900" />
              <mxPoint x="1100" y="990" />
              <mxPoint x="1290" y="910" />
            </Array>
          </mxGeometry>
        </mxCell>
        <mxCell id="lzTJ7oMeltYPbNWA7_HH-13" value="" style="curved=1;endArrow=none;html=1;rounded=0;endFill=0;" parent="1" edge="1">
          <mxGeometry width="50" height="50" relative="1" as="geometry">
            <mxPoint x="460" y="240" as="sourcePoint" />
            <mxPoint x="600" y="240" as="targetPoint" />
            <Array as="points">
              <mxPoint x="460" y="170" />
              <mxPoint x="530" y="120" />
              <mxPoint x="600" y="170" />
            </Array>
          </mxGeometry>
        </mxCell>
        <mxCell id="lzTJ7oMeltYPbNWA7_HH-14" value="" style="curved=1;endArrow=none;html=1;rounded=0;endFill=0;" parent="1" edge="1">
          <mxGeometry width="50" height="50" relative="1" as="geometry">
            <mxPoint x="1030" y="240" as="sourcePoint" />
            <mxPoint x="1170" y="240" as="targetPoint" />
            <Array as="points">
              <mxPoint x="1030" y="170" />
              <mxPoint x="1100" y="120" />
              <mxPoint x="1170" y="170" />
            </Array>
          </mxGeometry>
        </mxCell>
        <mxCell id="lzTJ7oMeltYPbNWA7_HH-15" value="" style="endArrow=none;html=1;rounded=0;" parent="1" edge="1">
          <mxGeometry width="50" height="50" relative="1" as="geometry">
            <mxPoint x="460" y="240" as="sourcePoint" />
            <mxPoint x="600" y="240" as="targetPoint" />
          </mxGeometry>
        </mxCell>
        <mxCell id="lzTJ7oMeltYPbNWA7_HH-16" value="" style="endArrow=none;html=1;rounded=0;" parent="1" edge="1">
          <mxGeometry width="50" height="50" relative="1" as="geometry">
            <mxPoint x="1030" y="240" as="sourcePoint" />
            <mxPoint x="1170" y="240" as="targetPoint" />
          </mxGeometry>
        </mxCell>
        <mxCell id="lzTJ7oMeltYPbNWA7_HH-17" value="" style="curved=1;endArrow=none;html=1;rounded=0;endFill=0;" parent="1" edge="1">
          <mxGeometry width="50" height="50" relative="1" as="geometry">
            <mxPoint x="460" y="759.9999999999995" as="sourcePoint" />
            <mxPoint x="600" y="759.9999999999995" as="targetPoint" />
            <Array as="points">
              <mxPoint x="460" y="829.9999999999995" />
              <mxPoint x="530" y="879.9999999999995" />
              <mxPoint x="600" y="829.9999999999995" />
            </Array>
          </mxGeometry>
        </mxCell>
        <mxCell id="lzTJ7oMeltYPbNWA7_HH-18" value="" style="curved=1;endArrow=none;html=1;rounded=0;endFill=0;" parent="1" edge="1">
          <mxGeometry width="50" height="50" relative="1" as="geometry">
            <mxPoint x="1030" y="759.9999999999995" as="sourcePoint" />
            <mxPoint x="1170" y="759.9999999999995" as="targetPoint" />
            <Array as="points">
              <mxPoint x="1030" y="829.9999999999995" />
              <mxPoint x="1100" y="879.9999999999995" />
              <mxPoint x="1170" y="829.9999999999995" />
            </Array>
          </mxGeometry>
        </mxCell>
        <mxCell id="lzTJ7oMeltYPbNWA7_HH-19" value="" style="endArrow=none;html=1;rounded=0;" parent="1" edge="1">
          <mxGeometry width="50" height="50" relative="1" as="geometry">
            <mxPoint x="460" y="760" as="sourcePoint" />
            <mxPoint x="600" y="760" as="targetPoint" />
          </mxGeometry>
        </mxCell>
        <mxCell id="lzTJ7oMeltYPbNWA7_HH-20" value="" style="endArrow=none;html=1;rounded=0;" parent="1" edge="1">
          <mxGeometry width="50" height="50" relative="1" as="geometry">
            <mxPoint x="1030" y="760" as="sourcePoint" />
            <mxPoint x="1170" y="760" as="targetPoint" />
          </mxGeometry>
        </mxCell>
        <mxCell id="lzTJ7oMeltYPbNWA7_HH-21" value="" style="endArrow=none;html=1;rounded=0;fillColor=#e51400;strokeColor=#FF0000;" parent="1" edge="1">
          <mxGeometry width="50" height="50" relative="1" as="geometry">
            <mxPoint x="160" y="500" as="sourcePoint" />
            <mxPoint x="1470" y="500" as="targetPoint" />
          </mxGeometry>
        </mxCell>
        <mxCell id="lzTJ7oMeltYPbNWA7_HH-22" value="" style="endArrow=none;html=1;rounded=0;fillColor=#60a917;strokeColor=#2D7600;" parent="1" edge="1">
          <mxGeometry width="50" height="50" relative="1" as="geometry">
            <mxPoint x="390" y="760" as="sourcePoint" />
            <mxPoint x="390" y="240" as="targetPoint" />
          </mxGeometry>
        </mxCell>
        <mxCell id="lzTJ7oMeltYPbNWA7_HH-23" value="" style="endArrow=none;html=1;rounded=0;fillColor=#60a917;strokeColor=#2D7600;" parent="1" edge="1">
          <mxGeometry width="50" height="50" relative="1" as="geometry">
            <mxPoint x="670" y="760" as="sourcePoint" />
            <mxPoint x="670" y="240" as="targetPoint" />
          </mxGeometry>
        </mxCell>
        <mxCell id="lzTJ7oMeltYPbNWA7_HH-24" value="" style="endArrow=none;html=1;rounded=0;fillColor=#60a917;strokeColor=#2D7600;" parent="1" edge="1">
          <mxGeometry width="50" height="50" relative="1" as="geometry">
            <mxPoint x="960" y="760" as="sourcePoint" />
            <mxPoint x="960" y="240" as="targetPoint" />
          </mxGeometry>
        </mxCell>
        <mxCell id="lzTJ7oMeltYPbNWA7_HH-25" value="" style="endArrow=none;html=1;rounded=0;fillColor=#60a917;strokeColor=#2D7600;" parent="1" edge="1">
          <mxGeometry width="50" height="50" relative="1" as="geometry">
            <mxPoint x="1240" y="760" as="sourcePoint" />
            <mxPoint x="1240" y="240" as="targetPoint" />
          </mxGeometry>
        </mxCell>
        <mxCell id="lzTJ7oMeltYPbNWA7_HH-26" value="" style="curved=1;endArrow=none;html=1;rounded=0;endFill=0;fillColor=#60a917;strokeColor=#2D7600;" parent="1" edge="1">
          <mxGeometry width="50" height="50" relative="1" as="geometry">
            <mxPoint x="390" y="240" as="sourcePoint" />
            <mxPoint x="670" y="240" as="targetPoint" />
            <Array as="points">
              <mxPoint x="390" y="130" />
              <mxPoint x="530" y="70" />
              <mxPoint x="670" y="130" />
            </Array>
          </mxGeometry>
        </mxCell>
        <mxCell id="lzTJ7oMeltYPbNWA7_HH-27" value="" style="curved=1;endArrow=none;html=1;rounded=0;endFill=0;fillColor=#60a917;strokeColor=#2D7600;" parent="1" edge="1">
          <mxGeometry width="50" height="50" relative="1" as="geometry">
            <mxPoint x="960" y="240" as="sourcePoint" />
            <mxPoint x="1240" y="240" as="targetPoint" />
            <Array as="points">
              <mxPoint x="960" y="130" />
              <mxPoint x="1100" y="70" />
              <mxPoint x="1240" y="130" />
            </Array>
          </mxGeometry>
        </mxCell>
        <mxCell id="lzTJ7oMeltYPbNWA7_HH-28" value="" style="curved=1;endArrow=none;html=1;rounded=0;endFill=0;fillColor=#60a917;strokeColor=#2D7600;" parent="1" edge="1">
          <mxGeometry width="50" height="50" relative="1" as="geometry">
            <mxPoint x="390" y="760" as="sourcePoint" />
            <mxPoint x="670" y="760" as="targetPoint" />
            <Array as="points">
              <mxPoint x="390" y="870" />
              <mxPoint x="530" y="930" />
              <mxPoint x="670" y="870" />
            </Array>
          </mxGeometry>
        </mxCell>
        <mxCell id="lzTJ7oMeltYPbNWA7_HH-29" value="" style="curved=1;endArrow=none;html=1;rounded=0;endFill=0;fillColor=#60a917;strokeColor=#2D7600;" parent="1" edge="1">
          <mxGeometry width="50" height="50" relative="1" as="geometry">
            <mxPoint x="960" y="760" as="sourcePoint" />
            <mxPoint x="1240" y="760" as="targetPoint" />
            <Array as="points">
              <mxPoint x="960" y="870" />
              <mxPoint x="1100" y="930" />
              <mxPoint x="1240" y="870" />
            </Array>
          </mxGeometry>
        </mxCell>
        <mxCell id="lzTJ7oMeltYPbNWA7_HH-30" value="" style="curved=1;endArrow=none;html=1;rounded=0;endFill=0;fillColor=#0050ef;strokeColor=#001DBC;" parent="1" edge="1">
          <mxGeometry width="50" height="50" relative="1" as="geometry">
            <mxPoint x="160" y="500" as="sourcePoint" />
            <mxPoint x="380" y="210" as="targetPoint" />
            <Array as="points">
              <mxPoint x="360" y="470" />
            </Array>
          </mxGeometry>
        </mxCell>
        <mxCell id="lzTJ7oMeltYPbNWA7_HH-31" value="" style="curved=1;endArrow=none;html=1;rounded=0;endFill=0;fillColor=#0050ef;strokeColor=#001DBC;" parent="1" edge="1">
          <mxGeometry width="50" height="50" relative="1" as="geometry">
            <mxPoint x="380" y="210" as="sourcePoint" />
            <mxPoint x="530" y="85" as="targetPoint" />
            <Array as="points">
              <mxPoint x="390" y="60" />
            </Array>
          </mxGeometry>
        </mxCell>
        <mxCell id="lzTJ7oMeltYPbNWA7_HH-33" value="" style="curved=1;endArrow=none;html=1;rounded=0;endFill=0;fillColor=#0050ef;strokeColor=#001DBC;" parent="1" edge="1">
          <mxGeometry width="50" height="50" relative="1" as="geometry">
            <mxPoint x="656" y="240.72727272727272" as="sourcePoint" />
            <mxPoint x="530" y="85" as="targetPoint" />
            <Array as="points">
              <mxPoint x="670" y="110" />
            </Array>
          </mxGeometry>
        </mxCell>
        <mxCell id="lzTJ7oMeltYPbNWA7_HH-34" value="" style="curved=1;endArrow=none;html=1;rounded=0;endFill=0;fillColor=#0050ef;strokeColor=#001DBC;" parent="1" edge="1">
          <mxGeometry width="50" height="50" relative="1" as="geometry">
            <mxPoint x="530" y="500" as="sourcePoint" />
            <mxPoint x="656" y="240" as="targetPoint" />
            <Array as="points">
              <mxPoint x="620" y="400" />
            </Array>
          </mxGeometry>
        </mxCell>
        <mxCell id="lzTJ7oMeltYPbNWA7_HH-35" value="" style="curved=1;endArrow=none;html=1;rounded=0;endFill=0;fillColor=#0050ef;strokeColor=#001DBC;" parent="1" edge="1">
          <mxGeometry width="50" height="50" relative="1" as="geometry">
            <mxPoint x="530" y="500" as="sourcePoint" />
            <mxPoint x="400" y="760" as="targetPoint" />
            <Array as="points">
              <mxPoint x="436" y="600" />
            </Array>
          </mxGeometry>
        </mxCell>
        <mxCell id="lzTJ7oMeltYPbNWA7_HH-37" value="" style="curved=1;endArrow=none;html=1;rounded=0;endFill=0;fillColor=#0050ef;strokeColor=#001DBC;" parent="1" edge="1">
          <mxGeometry width="50" height="50" relative="1" as="geometry">
            <mxPoint x="400" y="760" as="sourcePoint" />
            <mxPoint x="530" y="915" as="targetPoint" />
            <Array as="points">
              <mxPoint x="390" y="890.7272727272727" />
            </Array>
          </mxGeometry>
        </mxCell>
        <mxCell id="lzTJ7oMeltYPbNWA7_HH-38" value="" style="curved=1;endArrow=none;html=1;rounded=0;endFill=0;fillColor=#0050ef;strokeColor=#001DBC;" parent="1" edge="1">
          <mxGeometry width="50" height="50" relative="1" as="geometry">
            <mxPoint x="680" y="760" as="sourcePoint" />
            <mxPoint x="530" y="915" as="targetPoint" />
            <Array as="points">
              <mxPoint x="670" y="940" />
            </Array>
          </mxGeometry>
        </mxCell>
        <mxCell id="lzTJ7oMeltYPbNWA7_HH-39" value="" style="curved=1;endArrow=none;html=1;rounded=0;endFill=0;fillColor=#0050ef;strokeColor=#001DBC;" parent="1" edge="1">
          <mxGeometry width="50" height="50" relative="1" as="geometry">
            <mxPoint x="810" y="500" as="sourcePoint" />
            <mxPoint x="680" y="760" as="targetPoint" />
            <Array as="points">
              <mxPoint x="716" y="600" />
            </Array>
          </mxGeometry>
        </mxCell>
        <mxCell id="lzTJ7oMeltYPbNWA7_HH-40" value="" style="curved=1;endArrow=none;html=1;rounded=0;endFill=0;fillColor=#0050ef;strokeColor=#001DBC;" parent="1" edge="1">
          <mxGeometry width="50" height="50" relative="1" as="geometry">
            <mxPoint x="810" y="500" as="sourcePoint" />
            <mxPoint x="936" y="240" as="targetPoint" />
            <Array as="points">
              <mxPoint x="900" y="400" />
            </Array>
          </mxGeometry>
        </mxCell>
        <mxCell id="lzTJ7oMeltYPbNWA7_HH-41" value="" style="curved=1;endArrow=none;html=1;rounded=0;endFill=0;fillColor=#0050ef;strokeColor=#001DBC;" parent="1" edge="1">
          <mxGeometry width="50" height="50" relative="1" as="geometry">
            <mxPoint x="936" y="240" as="sourcePoint" />
            <mxPoint x="1100" y="85" as="targetPoint" />
            <Array as="points">
              <mxPoint x="970" y="60" />
            </Array>
          </mxGeometry>
        </mxCell>
        <mxCell id="lzTJ7oMeltYPbNWA7_HH-42" value="" style="curved=1;endArrow=none;html=1;rounded=0;endFill=0;fillColor=#0050ef;strokeColor=#001DBC;" parent="1" edge="1">
          <mxGeometry width="50" height="50" relative="1" as="geometry">
            <mxPoint x="1226" y="240" as="sourcePoint" />
            <mxPoint x="1100" y="85" as="targetPoint" />
            <Array as="points">
              <mxPoint x="1240" y="115" />
            </Array>
          </mxGeometry>
        </mxCell>
        <mxCell id="lzTJ7oMeltYPbNWA7_HH-43" value="" style="curved=1;endArrow=none;html=1;rounded=0;endFill=0;fillColor=#0050ef;strokeColor=#001DBC;" parent="1" edge="1">
          <mxGeometry width="50" height="50" relative="1" as="geometry">
            <mxPoint x="1100" y="500" as="sourcePoint" />
            <mxPoint x="1226" y="240" as="targetPoint" />
            <Array as="points">
              <mxPoint x="1190" y="400" />
            </Array>
          </mxGeometry>
        </mxCell>
        <mxCell id="lzTJ7oMeltYPbNWA7_HH-44" value="" style="curved=1;endArrow=none;html=1;rounded=0;endFill=0;fillColor=#0050ef;strokeColor=#001DBC;" parent="1" edge="1">
          <mxGeometry width="50" height="50" relative="1" as="geometry">
            <mxPoint x="1100" y="500" as="sourcePoint" />
            <mxPoint x="970" y="760" as="targetPoint" />
            <Array as="points">
              <mxPoint x="1006" y="600" />
            </Array>
          </mxGeometry>
        </mxCell>
        <mxCell id="lzTJ7oMeltYPbNWA7_HH-45" value="" style="curved=1;endArrow=none;html=1;rounded=0;endFill=0;fillColor=#0050ef;strokeColor=#001DBC;" parent="1" edge="1">
          <mxGeometry width="50" height="50" relative="1" as="geometry">
            <mxPoint x="970" y="760" as="sourcePoint" />
            <mxPoint x="1100" y="915" as="targetPoint" />
            <Array as="points">
              <mxPoint x="960" y="890.7272727272727" />
            </Array>
          </mxGeometry>
        </mxCell>
        <mxCell id="lzTJ7oMeltYPbNWA7_HH-46" value="" style="curved=1;endArrow=none;html=1;rounded=0;endFill=0;fillColor=#0050ef;strokeColor=#001DBC;" parent="1" edge="1">
          <mxGeometry width="50" height="50" relative="1" as="geometry">
            <mxPoint x="1250" y="760" as="sourcePoint" />
            <mxPoint x="1100" y="915" as="targetPoint" />
            <Array as="points">
              <mxPoint x="1240" y="940" />
            </Array>
          </mxGeometry>
        </mxCell>
        <mxCell id="lzTJ7oMeltYPbNWA7_HH-47" value="" style="curved=1;endArrow=none;html=1;rounded=0;endFill=0;fillColor=#0050ef;strokeColor=#001DBC;" parent="1" edge="1">
          <mxGeometry width="50" height="50" relative="1" as="geometry">
            <mxPoint x="1470" y="500" as="sourcePoint" />
            <mxPoint x="1250" y="760" as="targetPoint" />
            <Array as="points">
              <mxPoint x="1270" y="510" />
            </Array>
          </mxGeometry>
        </mxCell>
        <mxCell id="lzTJ7oMeltYPbNWA7_HH-48" value="$$\textcolor{red}{V_0}$$" style="text;html=1;align=center;verticalAlign=middle;whiteSpace=wrap;rounded=0;fontSize=27;" parent="1" vertex="1">
          <mxGeometry x="100" y="490" width="60" height="30" as="geometry" />
        </mxCell>
        <mxCell id="lzTJ7oMeltYPbNWA7_HH-49" value="$$V_1^1$$" style="text;html=1;align=center;verticalAlign=middle;whiteSpace=wrap;rounded=0;fontSize=27;" parent="1" vertex="1">
          <mxGeometry x="670" y="340" width="60" height="30" as="geometry" />
        </mxCell>
        <mxCell id="lzTJ7oMeltYPbNWA7_HH-50" value="&lt;div&gt;$$V_1^2$$&lt;/div&gt;" style="text;html=1;align=center;verticalAlign=middle;whiteSpace=wrap;rounded=0;fontSize=27;" parent="1" vertex="1">
          <mxGeometry x="1240" y="330" width="60" height="30" as="geometry" />
        </mxCell>
        <mxCell id="lzTJ7oMeltYPbNWA7_HH-53" value="$$V_2$$" style="text;html=1;align=center;verticalAlign=middle;whiteSpace=wrap;rounded=0;fontSize=27;" parent="1" vertex="1">
          <mxGeometry x="220" y="430" width="60" height="30" as="geometry" />
        </mxCell>
        <mxCell id="lzTJ7oMeltYPbNWA7_HH-57" value="" style="endArrow=none;html=1;rounded=0;fillColor=#0050ef;strokeColor=#001DBC;" parent="1" edge="1">
          <mxGeometry width="50" height="50" relative="1" as="geometry">
            <mxPoint x="336" y="375" as="sourcePoint" />
            <mxPoint x="341" y="370" as="targetPoint" />
          </mxGeometry>
        </mxCell>
        <mxCell id="lzTJ7oMeltYPbNWA7_HH-58" value="" style="endArrow=none;html=1;rounded=0;fillColor=#0050ef;strokeColor=#001DBC;" parent="1" edge="1">
          <mxGeometry width="50" height="50" relative="1" as="geometry">
            <mxPoint x="340.2" y="376.7" as="sourcePoint" />
            <mxPoint x="341" y="370" as="targetPoint" />
          </mxGeometry>
        </mxCell>
        <mxCell id="lzTJ7oMeltYPbNWA7_HH-59" value="$$\textcolor{blue}{m_1}$$" style="text;html=1;align=center;verticalAlign=middle;whiteSpace=wrap;rounded=0;" parent="1" vertex="1">
          <mxGeometry x="310" y="350" width="30" height="20" as="geometry" />
        </mxCell>
        <mxCell id="lzTJ7oMeltYPbNWA7_HH-60" value="" style="endArrow=none;html=1;rounded=0;fillColor=#0050ef;strokeColor=#001DBC;" parent="1" edge="1">
          <mxGeometry width="50" height="50" relative="1" as="geometry">
            <mxPoint x="605.75" y="379.5" as="sourcePoint" />
            <mxPoint x="606" y="386" as="targetPoint" />
          </mxGeometry>
        </mxCell>
        <mxCell id="lzTJ7oMeltYPbNWA7_HH-62" value="" style="endArrow=none;html=1;rounded=0;fillColor=#0050ef;strokeColor=#001DBC;" parent="1" edge="1">
          <mxGeometry width="50" height="50" relative="1" as="geometry">
            <mxPoint x="611.5" y="381.5" as="sourcePoint" />
            <mxPoint x="606" y="386" as="targetPoint" />
          </mxGeometry>
        </mxCell>
        <mxCell id="lzTJ7oMeltYPbNWA7_HH-63" value="$$\textcolor{blue}{m_2}$$" style="text;html=1;align=center;verticalAlign=middle;whiteSpace=wrap;rounded=0;" parent="1" vertex="1">
          <mxGeometry x="560" y="360" width="40" height="20" as="geometry" />
        </mxCell>
        <mxCell id="lzTJ7oMeltYPbNWA7_HH-64" value="" style="endArrow=none;html=1;rounded=0;fillColor=#0050ef;strokeColor=#001DBC;" parent="1" edge="1">
          <mxGeometry width="50" height="50" relative="1" as="geometry">
            <mxPoint x="485.5" y="560" as="sourcePoint" />
            <mxPoint x="479.5" y="564.5" as="targetPoint" />
          </mxGeometry>
        </mxCell>
        <mxCell id="lzTJ7oMeltYPbNWA7_HH-65" value="" style="endArrow=none;html=1;rounded=0;fillColor=#0050ef;strokeColor=#001DBC;" parent="1" edge="1">
          <mxGeometry width="50" height="50" relative="1" as="geometry">
            <mxPoint x="480" y="557.5" as="sourcePoint" />
            <mxPoint x="479" y="564.5" as="targetPoint" />
          </mxGeometry>
        </mxCell>
        <mxCell id="lzTJ7oMeltYPbNWA7_HH-66" value="$$\textcolor{blue}{m_3}$$" style="text;html=1;align=center;verticalAlign=middle;whiteSpace=wrap;rounded=0;" parent="1" vertex="1">
          <mxGeometry x="450" y="541.5" width="40" height="15" as="geometry" />
        </mxCell>
        <mxCell id="lzTJ7oMeltYPbNWA7_HH-67" value="" style="endArrow=none;html=1;rounded=0;fillColor=#0050ef;strokeColor=#001DBC;" parent="1" edge="1">
          <mxGeometry width="50" height="50" relative="1" as="geometry">
            <mxPoint x="755" y="576.7" as="sourcePoint" />
            <mxPoint x="755.8" y="570" as="targetPoint" />
          </mxGeometry>
        </mxCell>
        <mxCell id="lzTJ7oMeltYPbNWA7_HH-70" value="" style="endArrow=none;html=1;rounded=0;fillColor=#0050ef;strokeColor=#001DBC;" parent="1" edge="1">
          <mxGeometry width="50" height="50" relative="1" as="geometry">
            <mxPoint x="756" y="570" as="sourcePoint" />
            <mxPoint x="750" y="574.5" as="targetPoint" />
          </mxGeometry>
        </mxCell>
        <mxCell id="lzTJ7oMeltYPbNWA7_HH-71" value="&lt;div&gt;$$\textcolor{blue}{m_4}$$&lt;/div&gt;" style="text;whiteSpace=wrap;html=1;" parent="1" vertex="1">
          <mxGeometry x="730" y="533" width="20" height="17" as="geometry" />
        </mxCell>
        <mxCell id="lzTJ7oMeltYPbNWA7_HH-73" value="" style="endArrow=none;html=1;rounded=0;fillColor=#0050ef;strokeColor=#001DBC;" parent="1" edge="1">
          <mxGeometry width="50" height="50" relative="1" as="geometry">
            <mxPoint x="883.3" y="391.5" as="sourcePoint" />
            <mxPoint x="878" y="396" as="targetPoint" />
          </mxGeometry>
        </mxCell>
        <mxCell id="lzTJ7oMeltYPbNWA7_HH-74" value="" style="endArrow=none;html=1;rounded=0;fillColor=#0050ef;strokeColor=#001DBC;" parent="1" edge="1">
          <mxGeometry width="50" height="50" relative="1" as="geometry">
            <mxPoint x="883.3" y="391.5" as="sourcePoint" />
            <mxPoint x="883" y="398.4" as="targetPoint" />
          </mxGeometry>
        </mxCell>
        <mxCell id="lzTJ7oMeltYPbNWA7_HH-75" value="$$\textcolor{blue}{m_5}$$" style="text;html=1;align=center;verticalAlign=middle;whiteSpace=wrap;rounded=0;" parent="1" vertex="1">
          <mxGeometry x="840" y="370" width="40" height="20" as="geometry" />
        </mxCell>
        <mxCell id="lzTJ7oMeltYPbNWA7_HH-76" value="" style="endArrow=none;html=1;rounded=0;fillColor=#0050ef;strokeColor=#001DBC;" parent="1" edge="1">
          <mxGeometry width="50" height="50" relative="1" as="geometry">
            <mxPoint x="1170" y="390" as="sourcePoint" />
            <mxPoint x="1170.7" y="396.5" as="targetPoint" />
          </mxGeometry>
        </mxCell>
        <mxCell id="lzTJ7oMeltYPbNWA7_HH-77" value="" style="endArrow=none;html=1;rounded=0;fillColor=#0050ef;strokeColor=#001DBC;" parent="1" edge="1">
          <mxGeometry width="50" height="50" relative="1" as="geometry">
            <mxPoint x="1176.7" y="392.5" as="sourcePoint" />
            <mxPoint x="1170.7" y="396.5" as="targetPoint" />
          </mxGeometry>
        </mxCell>
        <mxCell id="lzTJ7oMeltYPbNWA7_HH-78" value="$$\textcolor{blue}{m_6}$$" style="text;html=1;align=center;verticalAlign=middle;whiteSpace=wrap;rounded=0;" parent="1" vertex="1">
          <mxGeometry x="1130" y="370" width="40" height="20" as="geometry" />
        </mxCell>
        <mxCell id="Ac29h0w5A5MmM1AmGKm3-1" value="" style="endArrow=none;html=1;rounded=0;fillColor=#0050ef;strokeColor=#001DBC;" edge="1" parent="1">
          <mxGeometry width="50" height="50" relative="1" as="geometry">
            <mxPoint x="1048.7" y="560" as="sourcePoint" />
            <mxPoint x="1047.7" y="567" as="targetPoint" />
          </mxGeometry>
        </mxCell>
        <mxCell id="Ac29h0w5A5MmM1AmGKm3-2" value="" style="endArrow=none;html=1;rounded=0;fillColor=#0050ef;strokeColor=#001DBC;" edge="1" parent="1">
          <mxGeometry width="50" height="50" relative="1" as="geometry">
            <mxPoint x="1054.6" y="562.6" as="sourcePoint" />
            <mxPoint x="1047.6" y="567.5" as="targetPoint" />
          </mxGeometry>
        </mxCell>
        <mxCell id="Ac29h0w5A5MmM1AmGKm3-3" value="$$\textcolor{blue}{m_7}$$" style="text;whiteSpace=wrap;html=1;" vertex="1" parent="1">
          <mxGeometry x="1020" y="533" width="20" height="17" as="geometry" />
        </mxCell>
        <mxCell id="Ac29h0w5A5MmM1AmGKm3-4" value="" style="endArrow=none;html=1;rounded=0;fillColor=#0050ef;strokeColor=#001DBC;" edge="1" parent="1">
          <mxGeometry width="50" height="50" relative="1" as="geometry">
            <mxPoint x="1315" y="570" as="sourcePoint" />
            <mxPoint x="1309" y="573" as="targetPoint" />
          </mxGeometry>
        </mxCell>
        <mxCell id="Ac29h0w5A5MmM1AmGKm3-5" value="" style="endArrow=none;html=1;rounded=0;fillColor=#0050ef;strokeColor=#001DBC;" edge="1" parent="1">
          <mxGeometry width="50" height="50" relative="1" as="geometry">
            <mxPoint x="1313.2" y="576.4" as="sourcePoint" />
            <mxPoint x="1314.8" y="570" as="targetPoint" />
          </mxGeometry>
        </mxCell>
        <mxCell id="Ac29h0w5A5MmM1AmGKm3-6" value="$$\textcolor{blue}{m_8}$$" style="text;whiteSpace=wrap;html=1;" vertex="1" parent="1">
          <mxGeometry x="1290" y="535" width="20" height="17" as="geometry" />
        </mxCell>
        <mxCell id="Ac29h0w5A5MmM1AmGKm3-8" value="" style="endArrow=none;html=1;rounded=0;fillColor=#e51400;strokeColor=#ff0000;" edge="1" parent="1">
          <mxGeometry width="50" height="50" relative="1" as="geometry">
            <mxPoint x="295" y="500" as="sourcePoint" />
            <mxPoint x="285" y="495" as="targetPoint" />
          </mxGeometry>
        </mxCell>
        <mxCell id="Ac29h0w5A5MmM1AmGKm3-9" value="" style="endArrow=none;html=1;rounded=0;fillColor=#e51400;strokeColor=#ff0000;" edge="1" parent="1">
          <mxGeometry width="50" height="50" relative="1" as="geometry">
            <mxPoint x="285" y="505" as="sourcePoint" />
            <mxPoint x="295" y="500" as="targetPoint" />
          </mxGeometry>
        </mxCell>
        <mxCell id="Ac29h0w5A5MmM1AmGKm3-10" value="$$\textcolor{red}{k_1}$$" style="text;html=1;align=center;verticalAlign=middle;whiteSpace=wrap;rounded=0;" vertex="1" parent="1">
          <mxGeometry x="260" y="470" width="60" height="30" as="geometry" />
        </mxCell>
        <mxCell id="Ac29h0w5A5MmM1AmGKm3-11" value="" style="endArrow=none;html=1;rounded=0;fillColor=#e51400;strokeColor=#FF0000;" edge="1" parent="1">
          <mxGeometry width="50" height="50" relative="1" as="geometry">
            <mxPoint x="465" y="500" as="sourcePoint" />
            <mxPoint x="455" y="495" as="targetPoint" />
          </mxGeometry>
        </mxCell>
        <mxCell id="Ac29h0w5A5MmM1AmGKm3-12" value="" style="endArrow=none;html=1;rounded=0;fillColor=#e51400;strokeColor=#FF0000;" edge="1" parent="1">
          <mxGeometry width="50" height="50" relative="1" as="geometry">
            <mxPoint x="455" y="505" as="sourcePoint" />
            <mxPoint x="465" y="500" as="targetPoint" />
          </mxGeometry>
        </mxCell>
        <mxCell id="Ac29h0w5A5MmM1AmGKm3-13" value="$$\textcolor{red}{k_2}$$" style="text;html=1;align=center;verticalAlign=middle;whiteSpace=wrap;rounded=0;" vertex="1" parent="1">
          <mxGeometry x="430" y="470" width="60" height="30" as="geometry" />
        </mxCell>
        <mxCell id="Ac29h0w5A5MmM1AmGKm3-14" value="" style="endArrow=none;html=1;rounded=0;fillColor=#e51400;strokeColor=#FF0000;" edge="1" parent="1">
          <mxGeometry width="50" height="50" relative="1" as="geometry">
            <mxPoint x="600" y="505" as="sourcePoint" />
            <mxPoint x="610" y="500" as="targetPoint" />
          </mxGeometry>
        </mxCell>
        <mxCell id="Ac29h0w5A5MmM1AmGKm3-15" value="" style="endArrow=none;html=1;rounded=0;fillColor=#e51400;strokeColor=#ff0000;" edge="1" parent="1">
          <mxGeometry width="50" height="50" relative="1" as="geometry">
            <mxPoint x="610" y="500" as="sourcePoint" />
            <mxPoint x="600" y="495" as="targetPoint" />
          </mxGeometry>
        </mxCell>
        <mxCell id="Ac29h0w5A5MmM1AmGKm3-16" value="$$\textcolor{red}{k_3}$$" style="text;html=1;align=center;verticalAlign=middle;whiteSpace=wrap;rounded=0;" vertex="1" parent="1">
          <mxGeometry x="580" y="470" width="60" height="30" as="geometry" />
        </mxCell>
        <mxCell id="Ac29h0w5A5MmM1AmGKm3-17" value="" style="endArrow=none;html=1;rounded=0;fillColor=#e51400;strokeColor=#FF0000;" edge="1" parent="1">
          <mxGeometry width="50" height="50" relative="1" as="geometry">
            <mxPoint x="760" y="500" as="sourcePoint" />
            <mxPoint x="750" y="495" as="targetPoint" />
          </mxGeometry>
        </mxCell>
        <mxCell id="Ac29h0w5A5MmM1AmGKm3-18" value="" style="endArrow=none;html=1;rounded=0;fillColor=#e51400;strokeColor=#FF0000;" edge="1" parent="1">
          <mxGeometry width="50" height="50" relative="1" as="geometry">
            <mxPoint x="750" y="505" as="sourcePoint" />
            <mxPoint x="760" y="500" as="targetPoint" />
          </mxGeometry>
        </mxCell>
        <mxCell id="Ac29h0w5A5MmM1AmGKm3-19" value="$$\textcolor{red}{k_4}$$" style="text;html=1;align=center;verticalAlign=middle;whiteSpace=wrap;rounded=0;" vertex="1" parent="1">
          <mxGeometry x="720" y="470" width="60" height="30" as="geometry" />
        </mxCell>
        <mxCell id="Ac29h0w5A5MmM1AmGKm3-20" value="" style="endArrow=none;html=1;rounded=0;fillColor=#e51400;strokeColor=#FF0000;" edge="1" parent="1">
          <mxGeometry width="50" height="50" relative="1" as="geometry">
            <mxPoint x="890" y="500" as="sourcePoint" />
            <mxPoint x="880" y="495" as="targetPoint" />
          </mxGeometry>
        </mxCell>
        <mxCell id="Ac29h0w5A5MmM1AmGKm3-21" value="" style="endArrow=none;html=1;rounded=0;fillColor=#e51400;strokeColor=#FF0000;" edge="1" parent="1">
          <mxGeometry width="50" height="50" relative="1" as="geometry">
            <mxPoint x="880" y="505" as="sourcePoint" />
            <mxPoint x="890" y="500" as="targetPoint" />
          </mxGeometry>
        </mxCell>
        <mxCell id="Ac29h0w5A5MmM1AmGKm3-22" value="$$\textcolor{red}{k_5}$$" style="text;html=1;align=center;verticalAlign=middle;whiteSpace=wrap;rounded=0;" vertex="1" parent="1">
          <mxGeometry x="850" y="470" width="60" height="30" as="geometry" />
        </mxCell>
        <mxCell id="Ac29h0w5A5MmM1AmGKm3-23" value="" style="endArrow=none;html=1;rounded=0;strokeColor=#FF0000;" edge="1" parent="1">
          <mxGeometry width="50" height="50" relative="1" as="geometry">
            <mxPoint x="1040" y="500" as="sourcePoint" />
            <mxPoint x="1030" y="495" as="targetPoint" />
          </mxGeometry>
        </mxCell>
        <mxCell id="Ac29h0w5A5MmM1AmGKm3-24" value="" style="endArrow=none;html=1;rounded=0;strokeColor=#FF0000;" edge="1" parent="1">
          <mxGeometry width="50" height="50" relative="1" as="geometry">
            <mxPoint x="1030" y="505" as="sourcePoint" />
            <mxPoint x="1040" y="500" as="targetPoint" />
          </mxGeometry>
        </mxCell>
        <mxCell id="Ac29h0w5A5MmM1AmGKm3-25" value="$$\textcolor{red}{k_6}$$" style="text;html=1;align=center;verticalAlign=middle;whiteSpace=wrap;rounded=0;" vertex="1" parent="1">
          <mxGeometry x="1000" y="470" width="60" height="30" as="geometry" />
        </mxCell>
        <mxCell id="Ac29h0w5A5MmM1AmGKm3-26" value="" style="endArrow=none;html=1;rounded=0;strokeColor=#FF0000;" edge="1" parent="1">
          <mxGeometry width="50" height="50" relative="1" as="geometry">
            <mxPoint x="1180" y="500" as="sourcePoint" />
            <mxPoint x="1170" y="495" as="targetPoint" />
          </mxGeometry>
        </mxCell>
        <mxCell id="Ac29h0w5A5MmM1AmGKm3-27" value="" style="endArrow=none;html=1;rounded=0;strokeColor=#FF0000;" edge="1" parent="1">
          <mxGeometry width="50" height="50" relative="1" as="geometry">
            <mxPoint x="1170" y="505" as="sourcePoint" />
            <mxPoint x="1180" y="500" as="targetPoint" />
          </mxGeometry>
        </mxCell>
        <mxCell id="Ac29h0w5A5MmM1AmGKm3-28" value="$$\textcolor{red}{k_7}$$" style="text;html=1;align=center;verticalAlign=middle;whiteSpace=wrap;rounded=0;" vertex="1" parent="1">
          <mxGeometry x="1140" y="470" width="60" height="30" as="geometry" />
        </mxCell>
        <mxCell id="Ac29h0w5A5MmM1AmGKm3-29" value="" style="endArrow=none;html=1;rounded=0;strokeColor=#FF0000;" edge="1" parent="1">
          <mxGeometry width="50" height="50" relative="1" as="geometry">
            <mxPoint x="1370" y="500" as="sourcePoint" />
            <mxPoint x="1360" y="495" as="targetPoint" />
          </mxGeometry>
        </mxCell>
        <mxCell id="Ac29h0w5A5MmM1AmGKm3-30" value="" style="endArrow=none;html=1;rounded=0;strokeColor=#FF0000;" edge="1" parent="1">
          <mxGeometry width="50" height="50" relative="1" as="geometry">
            <mxPoint x="1360" y="505" as="sourcePoint" />
            <mxPoint x="1370" y="500" as="targetPoint" />
          </mxGeometry>
        </mxCell>
        <mxCell id="Ac29h0w5A5MmM1AmGKm3-31" value="$$\textcolor{red}{k_8}$$" style="text;html=1;align=center;verticalAlign=middle;whiteSpace=wrap;rounded=0;" vertex="1" parent="1">
          <mxGeometry x="1330" y="470" width="60" height="30" as="geometry" />
        </mxCell>
        <mxCell id="Ac29h0w5A5MmM1AmGKm3-32" value="" style="endArrow=none;html=1;rounded=0;fillColor=#60a917;strokeColor=#2D7600;" edge="1" parent="1">
          <mxGeometry width="50" height="50" relative="1" as="geometry">
            <mxPoint x="390" y="410" as="sourcePoint" />
            <mxPoint x="395" y="400" as="targetPoint" />
          </mxGeometry>
        </mxCell>
        <mxCell id="Ac29h0w5A5MmM1AmGKm3-33" value="" style="endArrow=none;html=1;rounded=0;fillColor=#60a917;strokeColor=#2D7600;" edge="1" parent="1">
          <mxGeometry width="50" height="50" relative="1" as="geometry">
            <mxPoint x="390" y="410" as="sourcePoint" />
            <mxPoint x="385" y="400" as="targetPoint" />
          </mxGeometry>
        </mxCell>
        <mxCell id="Ac29h0w5A5MmM1AmGKm3-34" value="$$\textcolor{green}{l_1^1}$$" style="text;html=1;align=center;verticalAlign=middle;whiteSpace=wrap;rounded=0;" vertex="1" parent="1">
          <mxGeometry x="390" y="390" width="60" height="30" as="geometry" />
        </mxCell>
        <mxCell id="Ac29h0w5A5MmM1AmGKm3-35" value="$$\textcolor{green}{l_2^1}$$" style="text;html=1;align=center;verticalAlign=middle;whiteSpace=wrap;rounded=0;" vertex="1" parent="1">
          <mxGeometry x="330" y="560" width="60" height="30" as="geometry" />
        </mxCell>
        <mxCell id="Ac29h0w5A5MmM1AmGKm3-36" value="" style="endArrow=none;html=1;rounded=0;fillColor=#60a917;strokeColor=#2D7600;" edge="1" parent="1">
          <mxGeometry width="50" height="50" relative="1" as="geometry">
            <mxPoint x="390" y="580" as="sourcePoint" />
            <mxPoint x="385" y="570" as="targetPoint" />
          </mxGeometry>
        </mxCell>
        <mxCell id="Ac29h0w5A5MmM1AmGKm3-37" value="" style="endArrow=none;html=1;rounded=0;fillColor=#60a917;strokeColor=#2D7600;" edge="1" parent="1">
          <mxGeometry width="50" height="50" relative="1" as="geometry">
            <mxPoint x="390" y="580" as="sourcePoint" />
            <mxPoint x="395" y="570" as="targetPoint" />
          </mxGeometry>
        </mxCell>
        <mxCell id="Ac29h0w5A5MmM1AmGKm3-38" value="" style="endArrow=none;html=1;rounded=0;fillColor=#60a917;strokeColor=#2D7600;" edge="1" parent="1">
          <mxGeometry width="50" height="50" relative="1" as="geometry">
            <mxPoint x="665" y="580" as="sourcePoint" />
            <mxPoint x="670" y="570" as="targetPoint" />
          </mxGeometry>
        </mxCell>
        <mxCell id="Ac29h0w5A5MmM1AmGKm3-39" value="" style="endArrow=none;html=1;rounded=0;fillColor=#60a917;strokeColor=#2D7600;" edge="1" parent="1">
          <mxGeometry width="50" height="50" relative="1" as="geometry">
            <mxPoint x="675" y="580" as="sourcePoint" />
            <mxPoint x="670" y="570" as="targetPoint" />
          </mxGeometry>
        </mxCell>
        <mxCell id="Ac29h0w5A5MmM1AmGKm3-40" value="$$\textcolor{green}{l_3^1}$$" style="text;html=1;align=center;verticalAlign=middle;whiteSpace=wrap;rounded=0;" vertex="1" parent="1">
          <mxGeometry x="610" y="560" width="60" height="30" as="geometry" />
        </mxCell>
        <mxCell id="Ac29h0w5A5MmM1AmGKm3-41" value="" style="endArrow=none;html=1;rounded=0;fillColor=#60a917;strokeColor=#2D7600;" edge="1" parent="1">
          <mxGeometry width="50" height="50" relative="1" as="geometry">
            <mxPoint x="665" y="410" as="sourcePoint" />
            <mxPoint x="670" y="400" as="targetPoint" />
          </mxGeometry>
        </mxCell>
        <mxCell id="Ac29h0w5A5MmM1AmGKm3-42" value="" style="endArrow=none;html=1;rounded=0;fillColor=#60a917;strokeColor=#2D7600;" edge="1" parent="1">
          <mxGeometry width="50" height="50" relative="1" as="geometry">
            <mxPoint x="675" y="410" as="sourcePoint" />
            <mxPoint x="670" y="400" as="targetPoint" />
          </mxGeometry>
        </mxCell>
        <mxCell id="Ac29h0w5A5MmM1AmGKm3-43" value="$$\textcolor{green}{l_4^1}$$" style="text;html=1;align=center;verticalAlign=middle;whiteSpace=wrap;rounded=0;" vertex="1" parent="1">
          <mxGeometry x="670" y="390" width="60" height="30" as="geometry" />
        </mxCell>
        <mxCell id="Ac29h0w5A5MmM1AmGKm3-44" value="" style="endArrow=none;html=1;rounded=0;fillColor=#60a917;strokeColor=#2D7600;" edge="1" parent="1">
          <mxGeometry width="50" height="50" relative="1" as="geometry">
            <mxPoint x="960" y="410" as="sourcePoint" />
            <mxPoint x="955" y="400" as="targetPoint" />
          </mxGeometry>
        </mxCell>
        <mxCell id="Ac29h0w5A5MmM1AmGKm3-45" value="" style="endArrow=none;html=1;rounded=0;fillColor=#60a917;strokeColor=#2D7600;" edge="1" parent="1">
          <mxGeometry width="50" height="50" relative="1" as="geometry">
            <mxPoint x="960" y="410" as="sourcePoint" />
            <mxPoint x="965" y="400" as="targetPoint" />
          </mxGeometry>
        </mxCell>
        <mxCell id="Ac29h0w5A5MmM1AmGKm3-46" value="$$\textcolor{green}{l_1^2}$$" style="text;html=1;align=center;verticalAlign=middle;whiteSpace=wrap;rounded=0;" vertex="1" parent="1">
          <mxGeometry x="960" y="390" width="60" height="30" as="geometry" />
        </mxCell>
        <mxCell id="Ac29h0w5A5MmM1AmGKm3-47" value="" style="endArrow=none;html=1;rounded=0;fillColor=#60a917;strokeColor=#2D7600;" edge="1" parent="1">
          <mxGeometry width="50" height="50" relative="1" as="geometry">
            <mxPoint x="960" y="580" as="sourcePoint" />
            <mxPoint x="955" y="570" as="targetPoint" />
          </mxGeometry>
        </mxCell>
        <mxCell id="Ac29h0w5A5MmM1AmGKm3-48" value="" style="endArrow=none;html=1;rounded=0;fillColor=#60a917;strokeColor=#2D7600;" edge="1" parent="1">
          <mxGeometry width="50" height="50" relative="1" as="geometry">
            <mxPoint x="960" y="580" as="sourcePoint" />
            <mxPoint x="965" y="570" as="targetPoint" />
          </mxGeometry>
        </mxCell>
        <mxCell id="Ac29h0w5A5MmM1AmGKm3-49" value="$$\textcolor{green}{l_2^2}$$" style="text;html=1;align=center;verticalAlign=middle;whiteSpace=wrap;rounded=0;" vertex="1" parent="1">
          <mxGeometry x="900" y="557.5" width="60" height="30" as="geometry" />
        </mxCell>
        <mxCell id="Ac29h0w5A5MmM1AmGKm3-50" value="$$\textcolor{green}{l_4^2}$$" style="text;html=1;align=center;verticalAlign=middle;whiteSpace=wrap;rounded=0;" vertex="1" parent="1">
          <mxGeometry x="1240" y="390" width="60" height="30" as="geometry" />
        </mxCell>
        <mxCell id="Ac29h0w5A5MmM1AmGKm3-51" value="" style="endArrow=none;html=1;rounded=0;fillColor=#60a917;strokeColor=#2D7600;" edge="1" parent="1">
          <mxGeometry width="50" height="50" relative="1" as="geometry">
            <mxPoint x="1245" y="580" as="sourcePoint" />
            <mxPoint x="1240" y="570" as="targetPoint" />
          </mxGeometry>
        </mxCell>
        <mxCell id="Ac29h0w5A5MmM1AmGKm3-52" value="" style="endArrow=none;html=1;rounded=0;fillColor=#60a917;strokeColor=#2D7600;" edge="1" parent="1">
          <mxGeometry width="50" height="50" relative="1" as="geometry">
            <mxPoint x="1235" y="580" as="sourcePoint" />
            <mxPoint x="1240" y="570" as="targetPoint" />
          </mxGeometry>
        </mxCell>
        <mxCell id="Ac29h0w5A5MmM1AmGKm3-53" value="" style="endArrow=none;html=1;rounded=0;fillColor=#60a917;strokeColor=#2D7600;" edge="1" parent="1">
          <mxGeometry width="50" height="50" relative="1" as="geometry">
            <mxPoint x="1235" y="410" as="sourcePoint" />
            <mxPoint x="1240" y="400" as="targetPoint" />
          </mxGeometry>
        </mxCell>
        <mxCell id="Ac29h0w5A5MmM1AmGKm3-54" value="" style="endArrow=none;html=1;rounded=0;fillColor=#60a917;strokeColor=#2D7600;" edge="1" parent="1">
          <mxGeometry width="50" height="50" relative="1" as="geometry">
            <mxPoint x="1245" y="410" as="sourcePoint" />
            <mxPoint x="1240" y="400" as="targetPoint" />
          </mxGeometry>
        </mxCell>
        <mxCell id="Ac29h0w5A5MmM1AmGKm3-55" value="$$\textcolor{green}{l_3^2}$$" style="text;html=1;align=center;verticalAlign=middle;whiteSpace=wrap;rounded=0;" vertex="1" parent="1">
          <mxGeometry x="1180" y="557.5" width="60" height="30" as="geometry" />
        </mxCell>
        <mxCell id="Ac29h0w5A5MmM1AmGKm3-57" value="$$c_1$$" style="text;html=1;align=center;verticalAlign=middle;whiteSpace=wrap;rounded=0;" vertex="1" parent="1">
          <mxGeometry x="150" y="500" width="60" height="30" as="geometry" />
        </mxCell>
        <mxCell id="Ac29h0w5A5MmM1AmGKm3-58" value="$$a_1^-$$" style="text;html=1;align=center;verticalAlign=middle;whiteSpace=wrap;rounded=0;" vertex="1" parent="1">
          <mxGeometry x="330" y="500" width="60" height="30" as="geometry" />
        </mxCell>
        <mxCell id="Ac29h0w5A5MmM1AmGKm3-59" value="$$c_3$$" style="text;html=1;align=center;verticalAlign=middle;whiteSpace=wrap;rounded=0;" vertex="1" parent="1">
          <mxGeometry x="800" y="500" width="60" height="30" as="geometry" />
        </mxCell>
        <mxCell id="Ac29h0w5A5MmM1AmGKm3-61" value="$$c_2$$" style="text;html=1;align=center;verticalAlign=middle;whiteSpace=wrap;rounded=0;" vertex="1" parent="1">
          <mxGeometry x="520" y="500" width="60" height="30" as="geometry" />
        </mxCell>
        <mxCell id="Ac29h0w5A5MmM1AmGKm3-62" value="$$c_1$$" style="text;html=1;align=center;verticalAlign=middle;whiteSpace=wrap;rounded=0;" vertex="1" parent="1">
          <mxGeometry x="1430" y="470" width="60" height="30" as="geometry" />
        </mxCell>
        <mxCell id="Ac29h0w5A5MmM1AmGKm3-64" value="$$c_4$$" style="text;html=1;align=center;verticalAlign=middle;whiteSpace=wrap;rounded=0;" vertex="1" parent="1">
          <mxGeometry x="1090" y="500" width="60" height="30" as="geometry" />
        </mxCell>
        <mxCell id="Ac29h0w5A5MmM1AmGKm3-65" value="$$a_1^+$$" style="text;html=1;align=center;verticalAlign=middle;whiteSpace=wrap;rounded=0;" vertex="1" parent="1">
          <mxGeometry x="610" y="500" width="60" height="30" as="geometry" />
        </mxCell>
        <mxCell id="Ac29h0w5A5MmM1AmGKm3-66" value="$$a_2^-$$" style="text;html=1;align=center;verticalAlign=middle;whiteSpace=wrap;rounded=0;" vertex="1" parent="1">
          <mxGeometry x="900" y="500" width="60" height="30" as="geometry" />
        </mxCell>
        <mxCell id="Ac29h0w5A5MmM1AmGKm3-67" value="$$a_2^+$$" style="text;html=1;align=center;verticalAlign=middle;whiteSpace=wrap;rounded=0;" vertex="1" parent="1">
          <mxGeometry x="1180" y="500" width="60" height="30" as="geometry" />
        </mxCell>
        <mxCell id="Ac29h0w5A5MmM1AmGKm3-68" value="$$b_1^-$$" style="text;html=1;align=center;verticalAlign=middle;whiteSpace=wrap;rounded=0;" vertex="1" parent="1">
          <mxGeometry x="500" y="90" width="60" height="30" as="geometry" />
        </mxCell>
        <mxCell id="Ac29h0w5A5MmM1AmGKm3-71" value="$$b_1^+$$" style="text;html=1;align=center;verticalAlign=middle;whiteSpace=wrap;rounded=0;" vertex="1" parent="1">
          <mxGeometry x="500" y="880" width="60" height="30" as="geometry" />
        </mxCell>
        <mxCell id="Ac29h0w5A5MmM1AmGKm3-72" value="$$b_2^-$$" style="text;html=1;align=center;verticalAlign=middle;whiteSpace=wrap;rounded=0;" vertex="1" parent="1">
          <mxGeometry x="1070" y="90" width="60" height="30" as="geometry" />
        </mxCell>
        <mxCell id="Ac29h0w5A5MmM1AmGKm3-73" value="$$b_2^+$$" style="text;html=1;align=center;verticalAlign=middle;whiteSpace=wrap;rounded=0;" vertex="1" parent="1">
          <mxGeometry x="1070" y="880" width="60" height="30" as="geometry" />
        </mxCell>
        <mxCell id="Ac29h0w5A5MmM1AmGKm3-75" value="$$D_1$$" style="text;html=1;align=center;verticalAlign=middle;whiteSpace=wrap;rounded=0;fontSize=18;" vertex="1" parent="1">
          <mxGeometry x="310" y="430" width="60" height="30" as="geometry" />
        </mxCell>
        <mxCell id="Ac29h0w5A5MmM1AmGKm3-76" value="$$D_2$$" style="text;html=1;align=center;verticalAlign=middle;whiteSpace=wrap;rounded=0;fontSize=18;" vertex="1" parent="1">
          <mxGeometry x="400" y="535" width="60" height="30" as="geometry" />
        </mxCell>
        <mxCell id="Ac29h0w5A5MmM1AmGKm3-77" value="$$D_3$$" style="text;html=1;align=center;verticalAlign=middle;whiteSpace=wrap;rounded=0;fontSize=18;" vertex="1" parent="1">
          <mxGeometry x="600" y="430" width="60" height="30" as="geometry" />
        </mxCell>
        <mxCell id="Ac29h0w5A5MmM1AmGKm3-78" value="$$D_4$$" style="text;html=1;align=center;verticalAlign=middle;whiteSpace=wrap;rounded=0;fontSize=18;" vertex="1" parent="1">
          <mxGeometry x="680" y="505" width="60" height="30" as="geometry" />
        </mxCell>
        <mxCell id="Ac29h0w5A5MmM1AmGKm3-79" value="$$D_5$$" style="text;html=1;align=center;verticalAlign=middle;whiteSpace=wrap;rounded=0;fontSize=18;" vertex="1" parent="1">
          <mxGeometry x="890" y="430" width="60" height="30" as="geometry" />
        </mxCell>
        <mxCell id="Ac29h0w5A5MmM1AmGKm3-80" value="$$D_6$$" style="text;html=1;align=center;verticalAlign=middle;whiteSpace=wrap;rounded=0;fontSize=18;" vertex="1" parent="1">
          <mxGeometry x="970" y="511.5" width="60" height="30" as="geometry" />
        </mxCell>
        <mxCell id="Ac29h0w5A5MmM1AmGKm3-81" value="$$D_7$$" style="text;html=1;align=center;verticalAlign=middle;whiteSpace=wrap;rounded=0;fontSize=18;" vertex="1" parent="1">
          <mxGeometry x="1170" y="430" width="60" height="30" as="geometry" />
        </mxCell>
        <mxCell id="Ac29h0w5A5MmM1AmGKm3-82" value="$$D_8$$" style="text;html=1;align=center;verticalAlign=middle;whiteSpace=wrap;rounded=0;fontSize=18;" vertex="1" parent="1">
          <mxGeometry x="1250" y="511.5" width="60" height="30" as="geometry" />
        </mxCell>
      </root>
    </mxGraphModel>
  </diagram>
</mxfile>
